<mxfile host="app.diagrams.net" agent="Mozilla/5.0 (Windows NT 10.0; Win64; x64) AppleWebKit/537.36 (KHTML, like Gecko) Chrome/132.0.0.0 Safari/537.36" version="26.0.10">
  <diagram name="Página-1" id="FncJEflM0DEVDAUgEF2Y">
    <mxGraphModel dx="2096" dy="1130" grid="1" gridSize="10" guides="1" tooltips="1" connect="1" arrows="1" fold="1" page="1" pageScale="1" pageWidth="827" pageHeight="1169" math="0" shadow="0">
      <root>
        <mxCell id="0" />
        <mxCell id="1" parent="0" />
        <mxCell id="1CFdhR_Xcs3Lwy6OhnN9-8" style="edgeStyle=orthogonalEdgeStyle;rounded=0;orthogonalLoop=1;jettySize=auto;html=1;exitX=0.5;exitY=1;exitDx=0;exitDy=0;" edge="1" parent="1" source="1CFdhR_Xcs3Lwy6OhnN9-1" target="1CFdhR_Xcs3Lwy6OhnN9-7">
          <mxGeometry relative="1" as="geometry" />
        </mxCell>
        <mxCell id="1CFdhR_Xcs3Lwy6OhnN9-1" value="INICIO" style="rounded=1;whiteSpace=wrap;html=1;" vertex="1" parent="1">
          <mxGeometry x="230" y="60" width="120" height="60" as="geometry" />
        </mxCell>
        <mxCell id="1CFdhR_Xcs3Lwy6OhnN9-11" style="edgeStyle=orthogonalEdgeStyle;rounded=0;orthogonalLoop=1;jettySize=auto;html=1;exitX=0.5;exitY=1;exitDx=0;exitDy=0;" edge="1" parent="1" source="1CFdhR_Xcs3Lwy6OhnN9-7" target="1CFdhR_Xcs3Lwy6OhnN9-10">
          <mxGeometry relative="1" as="geometry" />
        </mxCell>
        <mxCell id="1CFdhR_Xcs3Lwy6OhnN9-7" value="N1 N2 N3" style="html=1;strokeWidth=2;shape=manualInput;whiteSpace=wrap;rounded=1;size=26;arcSize=11;" vertex="1" parent="1">
          <mxGeometry x="240" y="180" width="100" height="60" as="geometry" />
        </mxCell>
        <mxCell id="1CFdhR_Xcs3Lwy6OhnN9-14" style="edgeStyle=orthogonalEdgeStyle;rounded=0;orthogonalLoop=1;jettySize=auto;html=1;exitX=0.5;exitY=1;exitDx=0;exitDy=0;entryX=0.5;entryY=0;entryDx=0;entryDy=0;" edge="1" parent="1" source="1CFdhR_Xcs3Lwy6OhnN9-10" target="1CFdhR_Xcs3Lwy6OhnN9-12">
          <mxGeometry relative="1" as="geometry" />
        </mxCell>
        <mxCell id="1CFdhR_Xcs3Lwy6OhnN9-10" value="média = (n1 + n2 + n3) / 3" style="rounded=0;whiteSpace=wrap;html=1;" vertex="1" parent="1">
          <mxGeometry x="230" y="300" width="120" height="60" as="geometry" />
        </mxCell>
        <mxCell id="1CFdhR_Xcs3Lwy6OhnN9-16" value="" style="edgeStyle=orthogonalEdgeStyle;rounded=0;orthogonalLoop=1;jettySize=auto;html=1;" edge="1" parent="1" source="1CFdhR_Xcs3Lwy6OhnN9-12" target="1CFdhR_Xcs3Lwy6OhnN9-15">
          <mxGeometry relative="1" as="geometry" />
        </mxCell>
        <mxCell id="1CFdhR_Xcs3Lwy6OhnN9-23" value="" style="edgeStyle=orthogonalEdgeStyle;rounded=0;orthogonalLoop=1;jettySize=auto;html=1;" edge="1" parent="1" source="1CFdhR_Xcs3Lwy6OhnN9-12" target="1CFdhR_Xcs3Lwy6OhnN9-22">
          <mxGeometry relative="1" as="geometry">
            <Array as="points">
              <mxPoint x="500" y="490" />
            </Array>
          </mxGeometry>
        </mxCell>
        <mxCell id="1CFdhR_Xcs3Lwy6OhnN9-12" value="media &amp;gt;=0&lt;div&gt;e&lt;/div&gt;&lt;div&gt;media &amp;lt;=4&lt;/div&gt;" style="rhombus;whiteSpace=wrap;html=1;" vertex="1" parent="1">
          <mxGeometry x="215" y="420" width="150" height="140" as="geometry" />
        </mxCell>
        <mxCell id="1CFdhR_Xcs3Lwy6OhnN9-45" style="edgeStyle=orthogonalEdgeStyle;rounded=0;orthogonalLoop=1;jettySize=auto;html=1;entryX=0;entryY=0.5;entryDx=0;entryDy=0;" edge="1" parent="1" source="1CFdhR_Xcs3Lwy6OhnN9-15" target="1CFdhR_Xcs3Lwy6OhnN9-47">
          <mxGeometry relative="1" as="geometry">
            <mxPoint x="110" y="990" as="targetPoint" />
            <Array as="points">
              <mxPoint x="70" y="990" />
            </Array>
          </mxGeometry>
        </mxCell>
        <mxCell id="1CFdhR_Xcs3Lwy6OhnN9-15" value="&quot;Reprovado&quot;" style="shape=document;whiteSpace=wrap;html=1;boundedLbl=1;" vertex="1" parent="1">
          <mxGeometry x="10" y="450" width="120" height="80" as="geometry" />
        </mxCell>
        <mxCell id="1CFdhR_Xcs3Lwy6OhnN9-17" value="sim" style="text;html=1;align=center;verticalAlign=middle;whiteSpace=wrap;rounded=0;" vertex="1" parent="1">
          <mxGeometry x="155" y="470" width="60" height="30" as="geometry" />
        </mxCell>
        <mxCell id="1CFdhR_Xcs3Lwy6OhnN9-30" style="edgeStyle=orthogonalEdgeStyle;rounded=0;orthogonalLoop=1;jettySize=auto;html=1;entryX=1;entryY=0.5;entryDx=0;entryDy=0;" edge="1" parent="1" source="1CFdhR_Xcs3Lwy6OhnN9-22" target="1CFdhR_Xcs3Lwy6OhnN9-25">
          <mxGeometry relative="1" as="geometry" />
        </mxCell>
        <mxCell id="1CFdhR_Xcs3Lwy6OhnN9-35" style="edgeStyle=orthogonalEdgeStyle;rounded=0;orthogonalLoop=1;jettySize=auto;html=1;entryX=0.5;entryY=0;entryDx=0;entryDy=0;" edge="1" parent="1" source="1CFdhR_Xcs3Lwy6OhnN9-22" target="1CFdhR_Xcs3Lwy6OhnN9-32">
          <mxGeometry relative="1" as="geometry" />
        </mxCell>
        <mxCell id="1CFdhR_Xcs3Lwy6OhnN9-22" value="media &amp;gt; 4&lt;div&gt;e&lt;br&gt;&lt;div&gt;media &amp;lt; 7&lt;/div&gt;&lt;/div&gt;" style="rhombus;whiteSpace=wrap;html=1;" vertex="1" parent="1">
          <mxGeometry x="420" y="580" width="160" height="150" as="geometry" />
        </mxCell>
        <mxCell id="1CFdhR_Xcs3Lwy6OhnN9-24" value="não" style="text;html=1;align=center;verticalAlign=middle;whiteSpace=wrap;rounded=0;" vertex="1" parent="1">
          <mxGeometry x="430" y="470" width="60" height="30" as="geometry" />
        </mxCell>
        <mxCell id="1CFdhR_Xcs3Lwy6OhnN9-25" value="&quot;Recuperação&quot;" style="shape=document;whiteSpace=wrap;html=1;boundedLbl=1;" vertex="1" parent="1">
          <mxGeometry x="200" y="615" width="120" height="80" as="geometry" />
        </mxCell>
        <mxCell id="1CFdhR_Xcs3Lwy6OhnN9-31" value="sim" style="text;html=1;align=center;verticalAlign=middle;whiteSpace=wrap;rounded=0;" vertex="1" parent="1">
          <mxGeometry x="350" y="630" width="60" height="30" as="geometry" />
        </mxCell>
        <mxCell id="1CFdhR_Xcs3Lwy6OhnN9-41" style="edgeStyle=orthogonalEdgeStyle;rounded=0;orthogonalLoop=1;jettySize=auto;html=1;entryX=1;entryY=0.5;entryDx=0;entryDy=0;" edge="1" parent="1" source="1CFdhR_Xcs3Lwy6OhnN9-32" target="1CFdhR_Xcs3Lwy6OhnN9-36">
          <mxGeometry relative="1" as="geometry" />
        </mxCell>
        <mxCell id="1CFdhR_Xcs3Lwy6OhnN9-43" style="edgeStyle=orthogonalEdgeStyle;rounded=0;orthogonalLoop=1;jettySize=auto;html=1;" edge="1" parent="1" source="1CFdhR_Xcs3Lwy6OhnN9-32">
          <mxGeometry relative="1" as="geometry">
            <mxPoint x="880" y="840" as="targetPoint" />
          </mxGeometry>
        </mxCell>
        <mxCell id="1CFdhR_Xcs3Lwy6OhnN9-32" value="media &amp;gt;=7&lt;div&gt;e&lt;/div&gt;&lt;div&gt;media &amp;lt;=10&lt;/div&gt;" style="rhombus;whiteSpace=wrap;html=1;" vertex="1" parent="1">
          <mxGeometry x="630" y="780" width="120" height="120" as="geometry" />
        </mxCell>
        <mxCell id="1CFdhR_Xcs3Lwy6OhnN9-49" style="edgeStyle=orthogonalEdgeStyle;rounded=0;orthogonalLoop=1;jettySize=auto;html=1;entryX=0.75;entryY=0;entryDx=0;entryDy=0;" edge="1" parent="1" source="1CFdhR_Xcs3Lwy6OhnN9-36" target="1CFdhR_Xcs3Lwy6OhnN9-47">
          <mxGeometry relative="1" as="geometry" />
        </mxCell>
        <mxCell id="1CFdhR_Xcs3Lwy6OhnN9-36" value="&quot;Aprovado&quot;" style="shape=document;whiteSpace=wrap;html=1;boundedLbl=1;" vertex="1" parent="1">
          <mxGeometry x="430" y="800" width="120" height="80" as="geometry" />
        </mxCell>
        <mxCell id="1CFdhR_Xcs3Lwy6OhnN9-38" value="não" style="text;html=1;align=center;verticalAlign=middle;whiteSpace=wrap;rounded=0;" vertex="1" parent="1">
          <mxGeometry x="610" y="630" width="60" height="30" as="geometry" />
        </mxCell>
        <mxCell id="1CFdhR_Xcs3Lwy6OhnN9-42" value="sim" style="text;html=1;align=center;verticalAlign=middle;whiteSpace=wrap;rounded=0;" vertex="1" parent="1">
          <mxGeometry x="570" y="810" width="60" height="30" as="geometry" />
        </mxCell>
        <mxCell id="1CFdhR_Xcs3Lwy6OhnN9-53" style="edgeStyle=orthogonalEdgeStyle;rounded=0;orthogonalLoop=1;jettySize=auto;html=1;entryX=1;entryY=0.5;entryDx=0;entryDy=0;" edge="1" parent="1" source="1CFdhR_Xcs3Lwy6OhnN9-44" target="1CFdhR_Xcs3Lwy6OhnN9-47">
          <mxGeometry relative="1" as="geometry">
            <Array as="points">
              <mxPoint x="940" y="990" />
            </Array>
          </mxGeometry>
        </mxCell>
        <mxCell id="1CFdhR_Xcs3Lwy6OhnN9-44" value="erro de digitação" style="shape=document;whiteSpace=wrap;html=1;boundedLbl=1;" vertex="1" parent="1">
          <mxGeometry x="880" y="800" width="120" height="80" as="geometry" />
        </mxCell>
        <mxCell id="1CFdhR_Xcs3Lwy6OhnN9-47" value="fim" style="rounded=1;whiteSpace=wrap;html=1;" vertex="1" parent="1">
          <mxGeometry x="230" y="960" width="120" height="60" as="geometry" />
        </mxCell>
        <mxCell id="1CFdhR_Xcs3Lwy6OhnN9-51" style="edgeStyle=orthogonalEdgeStyle;rounded=0;orthogonalLoop=1;jettySize=auto;html=1;entryX=0.183;entryY=-0.023;entryDx=0;entryDy=0;entryPerimeter=0;" edge="1" parent="1" source="1CFdhR_Xcs3Lwy6OhnN9-25" target="1CFdhR_Xcs3Lwy6OhnN9-47">
          <mxGeometry relative="1" as="geometry" />
        </mxCell>
        <mxCell id="1CFdhR_Xcs3Lwy6OhnN9-54" value="rv" style="ellipse;whiteSpace=wrap;html=1;" vertex="1" parent="1">
          <mxGeometry x="450" y="550" width="80" height="80" as="geometry" />
        </mxCell>
      </root>
    </mxGraphModel>
  </diagram>
</mxfile>
